HIERARCHY
ROOT Hips
{
	OFFSET 0.000000 0.000000 0.000000 
	CHANNELS 6 Xposition Yposition Zposition Zrotation Yrotation Xrotation
	JOINT LeftUpLeg
	{
		OFFSET 1.363060 -1.794630 0.839290 
		CHANNELS 3 Zrotation Yrotation Xrotation
		JOINT LeftLeg
		{
			OFFSET 2.448110 -6.726130 0.000000 
			CHANNELS 3 Zrotation Yrotation Xrotation
			JOINT LeftFoot
			{
				OFFSET 2.562200 -7.039590 0.000000 
				CHANNELS 3 Zrotation Yrotation Xrotation
				JOINT LeftToeBase
				{
					OFFSET 0.157640 -0.433110 2.322550 
					CHANNELS 3 Zrotation Yrotation Xrotation
					End Site
					{
						OFFSET 0.000000 0.000000 0.000000 
					}
				}
			}
		}
	}
	JOINT RightUpLeg
	{
		OFFSET -1.305520 -1.794630 0.839290 
		CHANNELS 3 Zrotation Yrotation Xrotation
		JOINT RightLeg
		{
			OFFSET -2.542530 -6.985550 0.000000 
			CHANNELS 3 Zrotation Yrotation Xrotation
			JOINT RightFoot
			{
				OFFSET -2.568260 -7.056230 0.000000 
				CHANNELS 3 Zrotation Yrotation Xrotation
				JOINT RightToeBase
				{
					OFFSET -0.164730 -0.452590 2.363150 
					CHANNELS 3 Zrotation Yrotation Xrotation
					End Site
					{
						OFFSET 0.000000 0.000000 0.000000 
					}
				}
			}
		}
	}
	JOINT Spine
	{
		OFFSET 0.028270 2.035590 -0.193380 
		CHANNELS 3 Zrotation Yrotation Xrotation
		JOINT Spine1
		{
			OFFSET 0.056720 2.048850 -0.042750 
			CHANNELS 3 Zrotation Yrotation Xrotation
			JOINT Neck1
			{
				OFFSET -0.054170 1.746240 0.172020 
				CHANNELS 3 Zrotation Yrotation Xrotation
				JOINT Head
				{
					OFFSET 0.104070 1.761360 -0.123970 
					CHANNELS 3 Zrotation Yrotation Xrotation
					End Site
					{
						OFFSET 0.000000 0.000000 0.000000 
					}
				}
			}
			JOINT LeftArm
			{
				OFFSET 3.362410 1.200890 -0.311210 
				CHANNELS 3 Zrotation Yrotation Xrotation
				JOINT LeftForeArm
				{
					OFFSET 4.983000 -0.000000 -0.000000 
					CHANNELS 3 Zrotation Yrotation Xrotation
					JOINT LeftHand
					{
						OFFSET 3.483560 -0.000000 -0.000000 
						CHANNELS 3 Zrotation Yrotation Xrotation
						JOINT LeftHandIndex1
						{
							OFFSET 0.715260 -0.000000 -0.000000 
							CHANNELS 3 Zrotation Yrotation Xrotation
							End Site
							{
								OFFSET 0.000000 0.000000 0.000000 
							}
						}
					}
				}
			}
			JOINT RightArm
			{
				OFFSET -3.136600 1.374050 -0.404650 
				CHANNELS 3 Zrotation Yrotation Xrotation
				JOINT RightForeArm
				{
					OFFSET -5.241900 -0.000000 -0.000000 
					CHANNELS 3 Zrotation Yrotation Xrotation
					JOINT RightHand
					{
						OFFSET -3.444170 -0.000000 -0.000000 
						CHANNELS 3 Zrotation Yrotation Xrotation
						JOINT RightHandIndex1
						{
							OFFSET -0.622530 -0.000000 -0.000000 
							CHANNELS 3 Zrotation Yrotation Xrotation
							End Site
							{
								OFFSET 0.000000 0.000000 0.000000 
							}
						}
					}
				}
			}
		}
	}
}
MOTION
Frames: 10
Frame Time: 0.041667
-11.768077 18.192321 2.024780 -2.567657 11.771713 4.067780 -7.666035 -10.195098 -22.833093 -1.107587 3.876715 14.173867 -5.424403 28.670628 -32.346937 2.434000 9.716900 28.064700 24.827125 8.939813 7.982537 -1.045664 -3.439558 16.681918 5.776920 -20.330750 -6.352266 -1.293600 7.206400 -20.328300 -16.055535 6.480538 14.995534 2.607056 3.370893 -7.612271 -2.526197 11.235789 34.554464 2.567400 4.587100 9.263900 -81.415719 4.734078 -13.955172 10.946314 -16.943797 -1.541776 -0.890043 -1.142316 8.292637 -7.125000 0.000000 0.000000 79.320956 1.181539 20.071491 -11.850083 12.977557 -1.572522 2.001664 -0.350236 24.120595 7.125000 0.000000 0.000000 
-11.685718 18.204969 2.100187 -2.698683 12.260633 4.019294 -7.826222 -10.269332 -22.734518 -1.052916 3.995932 14.530713 -5.361305 28.265009 -31.880987 2.458400 9.761900 28.209000 24.748031 8.591987 8.017602 -1.099229 -3.539457 16.946548 5.781371 -20.303144 -5.745851 -1.287300 7.189300 -20.277500 -16.187672 6.516740 14.860188 2.605596 3.386488 -7.647524 -2.451214 11.194795 34.889687 2.589800 4.577600 9.384500 -81.255285 4.601655 -13.176132 11.181999 -17.298854 -1.618150 -0.871418 -1.155486 7.744182 -7.125000 0.000000 0.000000 79.428010 0.998156 20.171992 -11.901798 13.063012 -1.585299 2.002284 -0.285920 24.301233 7.125000 0.000000 0.000000 
-11.598533 18.218100 2.178780 -2.909913 12.733504 3.917345 -7.993287 -10.182219 -22.600205 -0.999473 4.076677 14.756593 -5.505228 28.200789 -31.032616 2.398200 9.650500 27.852200 24.718219 8.255918 8.023181 -1.174307 -3.678132 17.325184 5.794875 -20.308428 -5.032513 -1.354500 7.367300 -20.808300 -16.156748 6.578837 14.913653 2.546010 3.408835 -7.579226 -2.350535 11.139699 35.080100 2.635300 4.553100 9.468100 -81.123002 4.394268 -12.388525 11.414941 -17.647592 -1.696681 -0.855042 -1.168188 7.122273 -7.125000 0.000000 0.000000 79.481152 0.871042 20.332620 -11.933983 13.116580 -1.598895 1.986067 -0.274414 24.172643 7.125000 0.000000 0.000000 
-11.510671 18.226693 2.254380 -2.992837 13.226598 3.855791 -8.019714 -10.812510 -22.236559 -0.977634 4.144027 15.055072 -5.116479 27.401930 -31.449051 2.527300 9.887400 28.612700 24.544261 7.963849 8.008905 -1.251990 -3.829335 17.722551 5.802636 -20.315449 -4.351259 -1.437300 7.579700 -21.444600 -16.190798 6.607637 14.811161 2.580584 3.425411 -7.580164 -2.339303 11.093910 35.200942 2.642900 4.528800 9.501300 -80.995381 4.228992 -11.695584 11.581062 -17.891585 -1.752951 -0.846312 -1.182482 6.657510 -7.125000 0.000000 0.000000 79.519790 0.623331 20.502512 -11.964623 13.178065 -1.613307 1.973396 -0.268930 23.915838 7.125000 0.000000 0.000000 
-11.428216 18.240307 2.328821 -3.128622 13.748410 3.792431 -8.317022 -10.639200 -22.185255 -0.908840 4.247700 15.333142 -5.411018 27.667169 -30.412893 2.396500 9.647200 27.841600 24.483608 7.734787 7.952072 -1.337531 -3.994476 18.188707 5.797927 -20.302474 -3.883075 -1.413800 7.520100 -21.265600 -16.160456 6.589443 14.601760 2.646211 3.429483 -7.672056 -2.306656 11.043370 35.410693 2.661100 4.505000 9.547400 -80.912002 3.983856 -11.513288 11.701097 -18.068106 -1.793382 -0.832510 -1.186318 6.677173 -7.125000 0.000000 0.000000 79.532374 0.323584 20.647530 -12.016796 13.280515 -1.634787 1.971675 -0.266440 23.758379 7.125000 0.000000 0.000000 
-11.348754 18.248417 2.402779 -3.398202 14.263447 3.704545 -8.388910 -10.586942 -22.140320 -0.850078 4.353024 15.619353 -5.489848 27.518757 -29.697853 2.366100 9.590200 27.659600 24.586306 7.503441 7.790391 -1.448922 -4.193975 18.765139 5.824880 -20.394202 -3.241745 -1.433400 7.569900 -21.415100 -16.041220 6.581113 14.501332 2.667962 3.434439 -7.692660 -2.277813 10.973408 35.625691 2.674400 4.472200 9.616900 -80.829281 3.717484 -11.291585 11.889274 -18.341555 -1.858243 -0.796794 -1.180931 6.478218 -7.125000 0.000000 0.000000 79.542619 0.179224 20.712298 -12.033038 13.314713 -1.644571 1.976796 -0.298179 23.735124 7.125000 0.000000 0.000000 
-11.265140 18.260003 2.475193 -3.512075 14.848799 3.718305 -8.542245 -10.798488 -22.083209 -0.790360 4.460824 15.956235 -5.501400 27.345596 -29.241240 2.353300 9.566100 27.582700 24.497700 7.171501 7.458377 -1.578442 -4.429264 19.437986 5.831440 -20.439414 -2.571082 -1.486600 7.702900 -21.815300 -16.110003 6.576756 14.298091 2.749652 3.441683 -7.673322 -2.419116 10.917820 35.725345 2.609200 4.440600 9.655400 -80.688236 3.523266 -10.684567 12.078299 -18.605752 -1.923504 -0.768615 -1.163536 6.060073 -7.125000 0.000000 0.000000 79.601549 0.033628 20.542131 -12.038238 13.328015 -1.645772 1.988736 -0.315153 24.030239 7.125000 0.000000 0.000000 
-11.176313 18.270624 2.548282 -3.630339 15.454499 3.714701 -8.720950 -10.944553 -22.011187 -0.735013 4.559335 16.264076 -5.489653 27.106175 -28.775128 2.403300 9.659900 27.882400 24.368880 6.728249 7.056805 -1.724750 -4.693242 20.226623 5.766991 -20.270294 -2.001456 -1.454600 7.623300 -21.575500 -16.222426 6.538894 14.060909 2.777619 3.427434 -7.662901 -2.371671 10.865323 35.801946 2.605800 4.431400 9.666900 -80.552629 3.424651 -9.810782 12.293192 -18.914407 -1.999833 -0.754669 -1.169448 5.466457 -7.125000 0.000000 0.000000 79.657167 -0.153810 20.500853 -12.085442 13.405136 -1.657938 1.988366 -0.272072 24.159970 7.125000 0.000000 0.000000 
-11.089031 18.273134 2.620310 -3.786657 15.983230 3.608681 -8.858880 -11.042791 -21.878772 -0.687945 4.646294 16.551198 -5.374368 26.636514 -28.435230 2.487900 9.815800 28.382200 24.257542 6.348910 6.666214 -1.898284 -4.995744 21.133410 5.689734 -20.076324 -1.243066 -1.388600 7.455700 -21.072500 -16.136996 6.529869 14.049917 2.789192 3.426658 -7.642954 -2.044422 10.814086 35.843654 2.721600 4.438400 9.662300 -80.466919 3.227595 -9.166686 12.485574 -19.196127 -2.070201 -0.743237 -1.193647 5.229583 -7.125000 0.000000 0.000000 79.677928 -0.268807 20.615863 -12.132583 13.481709 -1.671471 2.002371 -0.237914 23.790683 7.125000 0.000000 0.000000 
-11.006576 18.280858 2.691951 -3.896648 16.469320 3.526489 -9.045003 -11.112307 -21.740474 -0.638716 4.714770 16.779539 -5.421175 26.516958 -27.884803 2.417100 9.685500 27.964200 24.154004 6.161919 6.235338 -2.101925 -5.341710 22.150015 5.673253 -20.112712 -0.371181 -1.337200 7.322100 -20.673100 -15.906300 6.534521 14.026947 2.910914 3.448766 -7.659708 -1.847894 10.813063 36.061306 2.817500 4.447700 9.717000 -80.443744 3.009261 -8.862692 12.657915 -19.447731 -2.131981 -0.741182 -1.223455 5.426179 -7.125000 0.000000 0.000000 79.636209 -0.446078 20.776825 -12.158807 13.538875 -1.680222 2.034023 -0.226541 23.295212 7.125000 0.000000 0.000000 
